<?xml version="1.0" standalone="no"?>
<!DOCTYPE svg PUBLIC "-//W3C//DTD SVG 20010904//EN"
 "http://www.w3.org/TR/2001/REC-SVG-20010904/DTD/svg10.dtd">
<svg version="1.0" xmlns="http://www.w3.org/2000/svg"
 width="1024.000000pt" height="1024.000000pt" viewBox="0 0 1024.000000 1024.000000"
 preserveAspectRatio="xMidYMid meet">

<g transform="translate(0.000000,1024.000000) scale(0.100000,-0.100000)"
fill="#000000" stroke="none">
<path d="M5092 7866 c-34 -13 -81 -36 -103 -52 -113 -78 -209 -233 -231 -376
l-12 -77 -98 -7 c-81 -5 -103 -11 -130 -31 -18 -13 -194 -184 -390 -380 -259
-258 -361 -366 -370 -392 -10 -28 -13 -255 -12 -1089 2 -1185 -4 -1105 79
-1181 24 -22 61 -45 83 -51 28 -7 319 -10 945 -8 l905 3 44 30 c44 31 108 124
108 157 0 10 -33 50 -72 89 l-73 71 -3 -71 c-3 -64 -5 -72 -33 -95 l-31 -26
-878 0 -879 0 -20 26 c-21 27 -21 30 -21 1057 l0 1031 323 324 c177 178 340
337 361 353 l39 29 204 0 203 0 88 -79 c48 -43 98 -90 110 -104 l24 -25 -74
-54 c-127 -93 -171 -113 -308 -139 -78 -15 -120 -50 -120 -98 0 -59 48 -85
144 -79 l55 3 -21 -23 c-26 -27 -87 -45 -125 -36 -134 31 -180 202 -77 283 38
30 97 44 139 32 29 -8 44 -4 109 27 42 19 76 39 76 44 0 17 -108 78 -158 89
-89 18 -196 -10 -266 -72 -58 -51 -82 -91 -102 -169 -27 -106 5 -219 86 -300
81 -81 197 -110 312 -76 101 29 197 139 214 245 6 38 14 47 108 118 55 42 108
78 116 80 9 2 88 -69 203 -185 l187 -188 0 -71 0 -71 73 -42 c39 -24 76 -45
81 -48 14 -8 2 269 -13 298 -7 14 -104 116 -214 228 -154 154 -200 205 -192
216 6 7 36 49 67 92 137 188 164 389 77 563 -33 66 -116 149 -183 183 -105 54
-247 63 -354 24z m255 -153 c123 -51 196 -185 173 -315 -14 -75 -33 -119 -86
-199 -69 -105 -58 -106 -186 16 -62 59 -126 114 -143 122 -17 9 -66 18 -116
21 l-86 5 8 46 c22 120 89 228 173 280 78 49 182 58 263 24z"/>
<path d="M5213 6306 c-523 -100 -858 -614 -718 -1102 70 -240 225 -429 445
-543 154 -79 285 -107 458 -98 118 6 219 31 325 79 81 38 41 63 326 -204 116
-109 222 -200 236 -204 14 -4 44 -4 67 -1 105 14 190 157 144 245 -8 15 -107
117 -220 227 -113 110 -206 205 -206 211 0 6 18 42 40 80 52 92 97 230 112
347 36 285 -81 569 -317 769 -85 73 -259 160 -365 183 -103 23 -240 27 -327
11z m351 -180 c370 -126 583 -505 490 -870 -47 -181 -157 -331 -320 -432 -293
-183 -668 -135 -915 116 -215 219 -262 544 -118 820 94 181 276 322 489 380
108 29 265 23 374 -14z"/>
<path d="M5228 6005 c-215 -54 -377 -203 -449 -414 -19 -54 -26 -175 -11 -197
14 -22 53 -35 83 -29 39 9 55 37 63 110 15 137 118 275 255 343 74 36 77 37
198 38 105 0 125 3 143 19 31 28 24 91 -13 119 -35 26 -184 33 -269 11z"/>
<path d="M4200 5502 c-110 -3 -140 -20 -140 -79 0 -62 24 -73 155 -73 102 0
117 2 135 20 28 28 26 81 -2 107 -31 27 -39 28 -148 25z"/>
<path d="M4082 5087 c-30 -32 -29 -77 4 -108 25 -23 31 -24 166 -24 l140 0 24
28 c29 34 31 66 3 101 -20 26 -21 26 -168 26 -141 0 -148 -1 -169 -23z"/>
<path d="M4086 4699 c-37 -29 -37 -89 0 -118 26 -20 38 -21 390 -21 200 0 364
4 364 8 0 5 -11 14 -24 20 -13 6 -56 38 -94 71 l-71 61 -269 0 c-257 0 -270
-1 -296 -21z"/>
<path d="M4650 3660 c-40 -40 -14 -100 43 -100 31 0 67 31 67 58 0 25 -41 62
-68 62 -12 0 -31 -9 -42 -20z"/>
<path d="M2575 3658 c-3 -7 -4 -141 -3 -298 l3 -285 150 -3 c139 -2 153 -1
195 20 61 31 90 77 90 142 0 63 -26 108 -77 134 -34 18 -35 20 -15 26 40 13
72 63 72 114 0 61 -27 105 -82 134 -38 20 -61 23 -185 26 -114 3 -144 1 -148
-10z m277 -115 c28 -25 23 -77 -8 -102 -21 -16 -41 -21 -89 -21 l-62 0 -7 65
c-4 36 -4 71 0 77 10 16 144 1 166 -19z m8 -236 c30 -15 45 -54 36 -91 -10
-39 -61 -58 -144 -54 l-67 3 -3 64 c-2 35 -1 70 2 77 7 18 141 19 176 1z"/>
<path d="M5447 3663 c-4 -3 -7 -138 -7 -300 l0 -293 143 0 c166 0 205 9 252
55 59 59 59 153 2 210 -18 18 -39 34 -47 37 -11 4 -7 12 17 32 93 78 42 227
-87 255 -55 12 -263 15 -273 4z m228 -103 c67 -15 86 -70 40 -115 -21 -22 -33
-25 -95 -25 l-70 0 0 75 0 75 43 0 c23 0 60 -5 82 -10z m60 -265 c30 -29 33
-73 7 -106 -16 -19 -31 -23 -105 -27 l-87 -5 0 82 0 81 80 0 c73 0 83 -3 105
-25z"/>
<path d="M6660 3569 l0 -100 -22 16 c-89 62 -211 25 -253 -77 -27 -65 -25
-192 4 -252 31 -62 71 -89 142 -94 46 -3 65 0 92 17 28 17 36 19 40 7 6 -14
70 -27 86 -17 10 7 15 169 13 419 l-2 182 -50 0 -50 0 0 -101z m-23 -188 c18
-26 23 -48 23 -96 0 -85 -28 -129 -86 -133 -31 -2 -44 2 -63 22 -42 45 -49
140 -15 208 17 32 28 37 79 35 33 -2 43 -8 62 -36z"/>
<path d="M7127 3664 c-4 -4 -7 -52 -7 -106 l0 -99 -22 21 c-70 65 -199 34
-244 -57 -22 -46 -30 -172 -15 -230 22 -80 88 -133 167 -133 40 0 104 26 105
44 0 6 4 1 9 -11 8 -20 17 -23 60 -23 l50 0 -2 298 -3 297 -45 3 c-25 2 -49 0
-53 -4z m-36 -270 c20 -22 24 -38 27 -103 4 -72 2 -79 -23 -109 -27 -32 -68
-42 -110 -26 -29 11 -48 65 -47 131 1 93 28 132 93 133 26 0 42 -7 60 -26z"/>
<path d="M3191 3509 c-51 -10 -84 -30 -107 -64 -23 -35 -14 -57 25 -68 29 -7
37 -5 50 12 26 33 66 43 106 26 30 -12 35 -19 35 -48 l0 -34 -64 -5 c-148 -12
-220 -98 -170 -203 29 -63 127 -84 204 -45 34 17 40 18 40 5 0 -11 12 -15 50
-15 l50 0 0 153 c0 83 -4 168 -10 186 -13 48 -56 90 -99 97 -20 3 -43 7 -51 9
-8 1 -35 -1 -59 -6z m107 -288 c5 -46 -29 -81 -78 -81 -20 0 -41 5 -48 12 -17
17 -15 63 2 77 20 17 66 30 96 28 21 -2 26 -8 28 -36z"/>
<path d="M3652 3509 c-18 -5 -38 -18 -45 -29 -16 -26 -25 -25 -29 3 -3 19 -9
22 -48 22 l-45 0 -3 -217 -2 -218 55 0 55 0 0 129 c0 71 4 141 10 155 11 30
57 56 100 56 29 0 30 1 30 49 0 62 -11 69 -78 50z"/>
<path d="M3876 3505 c-91 -32 -131 -108 -124 -239 4 -70 9 -91 31 -125 50 -76
146 -98 222 -51 l38 24 -6 -45 c-8 -60 -42 -89 -105 -89 -29 0 -59 8 -78 19
l-32 19 -27 -28 -27 -29 25 -24 c78 -72 260 -59 319 23 29 40 39 138 36 350
l-3 195 -45 0 c-39 0 -45 -3 -48 -22 l-3 -22 -37 23 c-49 31 -88 37 -136 21z
m115 -95 c35 -19 51 -67 47 -138 -4 -58 -8 -68 -36 -93 -50 -44 -98 -36 -128
23 -12 23 -15 50 -12 101 3 61 7 72 31 93 30 26 66 31 98 14z"/>
<path d="M5011 3510 c-18 -4 -43 -17 -54 -29 l-21 -20 -11 22 c-11 23 -69 35
-90 20 -6 -5 -9 -87 -7 -220 l3 -213 50 0 49 0 0 128 c0 139 11 196 40 212 31
17 75 12 96 -11 17 -18 19 -40 22 -175 l3 -154 50 0 c31 0 51 5 54 13 3 6 1
90 -3 186 l-8 173 -37 34 c-20 19 -45 34 -56 34 -11 0 -25 2 -33 4 -7 2 -28 0
-47 -4z"/>
<path d="M4305 3496 c-30 -13 -85 -69 -85 -87 0 -11 53 -39 74 -39 8 0 20 9
25 19 13 23 62 41 93 34 30 -7 48 -31 48 -63 0 -26 -2 -27 -74 -33 -122 -9
-176 -51 -176 -138 0 -42 5 -55 33 -86 29 -31 41 -37 90 -41 44 -3 65 0 96 16
33 17 40 18 45 6 4 -9 21 -14 52 -14 l46 0 -6 172 c-4 102 -11 182 -19 197
-22 47 -72 71 -146 71 -36 -1 -80 -7 -96 -14z m155 -270 c0 -47 -27 -76 -75
-83 -32 -4 -44 -1 -59 16 -16 17 -18 27 -10 49 12 34 47 52 102 52 41 0 42 -1
42 -34z"/>
<path d="M4647 3504 c-4 -4 -7 -103 -7 -221 l0 -213 49 0 49 0 7 113 c3 61 5
159 3 217 l-3 105 -45 3 c-25 2 -49 0 -53 -4z"/>
<path d="M6200 3371 c0 -185 -14 -221 -88 -221 -47 0 -62 26 -62 111 0 41 -3
111 -7 157 l-6 82 -48 0 -49 0 0 -167 c0 -192 9 -225 70 -255 47 -24 117 -23
157 1 27 17 32 18 37 5 4 -11 18 -14 53 -12 l48 3 3 195 c1 107 0 205 -3 218
-5 19 -12 22 -55 22 l-50 0 0 -139z"/>
<path d="M7265 3500 c-3 -5 28 -95 69 -200 42 -104 76 -195 76 -202 0 -7 -16
-53 -35 -102 -19 -49 -32 -92 -29 -97 8 -14 90 -11 102 4 6 7 58 134 117 282
58 149 110 280 115 293 12 28 -1 35 -60 30 l-42 -3 -51 -137 c-28 -76 -53
-135 -56 -132 -3 3 -29 65 -57 137 l-52 132 -45 3 c-25 2 -48 -2 -52 -8z"/>
</g>
</svg>
